<?xml version="1.0" encoding="UTF-8" standalone="no"?>
<!-- Created with Inkscape (http://www.inkscape.org/) -->

<svg
   xmlns:dc="http://purl.org/dc/elements/1.1/"
   xmlns:cc="http://creativecommons.org/ns#"
   xmlns:rdf="http://www.w3.org/1999/02/22-rdf-syntax-ns#"
   xmlns:svg="http://www.w3.org/2000/svg"
   xmlns="http://www.w3.org/2000/svg"
   xmlns:sodipodi="http://sodipodi.sourceforge.net/DTD/sodipodi-0.dtd"
   xmlns:inkscape="http://www.inkscape.org/namespaces/inkscape"
   width="300"
   height="300"
   id="svg3017"
   version="1.1"
   inkscape:version="0.48.5 r10040"
   sodipodi:docname="hirsch-logo.svg">
  <defs
     id="defs3019" />
  <sodipodi:namedview
     id="base"
     pagecolor="#ffffff"
     bordercolor="#666666"
     borderopacity="1.0"
     inkscape:pageopacity="0.0"
     inkscape:pageshadow="2"
     inkscape:zoom="1.4"
     inkscape:cx="109.22003"
     inkscape:cy="153.73346"
     inkscape:document-units="px"
     inkscape:current-layer="layer1"
     showgrid="false"
     inkscape:window-width="982"
     inkscape:window-height="789"
     inkscape:window-x="117"
     inkscape:window-y="136"
     inkscape:window-maximized="0" />
  <metadata
     id="metadata3022">
    <rdf:RDF>
      <cc:Work
         rdf:about="">
        <dc:format>image/svg+xml</dc:format>
        <dc:type
           rdf:resource="http://purl.org/dc/dcmitype/StillImage" />
        <dc:title></dc:title>
      </cc:Work>
    </rdf:RDF>
  </metadata>
  <g
     inkscape:label="Layer 1"
     inkscape:groupmode="layer"
     id="layer1"
     transform="translate(0,-752.36218)">
    <path
       style="fill:#000000;stroke:#000000;stroke-width:1px;stroke-linecap:butt;stroke-linejoin:miter;stroke-opacity:1"
       d="m 237.34591,750.7962 c 0.21073,0.004 0.69958,0.25347 1.5994,0.86258 4.11356,2.78452 7.74468,9.93046 7.98666,15.98374 0.24198,6.0533 0.23995,23.24504 0.96586,23.48717 0.72594,0.24214 0.72514,0.23943 4.11275,-1.81869 3.38765,-2.05812 5.68831,-7.38196 5.93028,-9.56114 0.24198,-2.17919 -2.06528,-4.36705 -3.39615,-5.81983 -1.33084,-1.4528 -0.80128,-2.88487 0.36352,-2.53579 1.16709,0.34977 1.56766,1.51023 2.41986,2.18244 0.61497,0.48507 0.78493,0.154 1.94215,1.33024 3.77018,3.83213 1.92809,6.53342 1.80712,8.83368 -0.12097,2.30024 -3.52318,6.62211 -6.16913,9.1974 -2.59864,2.52923 -6.04574,4.73024 -9.19141,5.81983 -3.14564,1.08959 -9.55595,5.32518 -10.28189,5.80943 -0.72591,0.48426 -3.27203,3.14638 -3.63501,3.75172 -0.36296,0.60532 -6.41271,6.29695 -7.25963,7.99187 -0.84691,1.69493 -0.727,7.13564 -0.727,9.0727 0,1.93706 -0.15866,2.40857 1.56823,4.72861 0.1365,0.18334 -0.35404,0.59843 1.33978,-2.30715 1.69383,-2.90558 3.09289,-2.84024 4.83976,-3.99074 4.20345,-2.76842 11.37201,-6.17426 13.42876,-6.90066 2.05678,-0.72639 4.35274,-0.48425 5.07865,0 0.7259,0.48427 0.48758,1.81264 0.12463,4.71823 -0.36296,2.90557 -4.59941,10.40983 -5.93029,12.71008 -1.33083,2.30027 -6.77529,6.42005 -9.316,7.02536 -2.5407,0.60534 -3.06929,-0.77384 -3.8739,0.23904 -0.4579,0.57648 0.11659,1.4887 0.36352,2.18244 0.10907,0.30649 0.30433,0.58379 0.48811,0.85218 0.46997,0.68629 2.06921,1.26906 1.56827,1.93302 -0.37013,0.49056 -1.20305,-1.0984 -1.69289,-0.72748 -0.74592,0.56483 -0.0113,1.92758 0.36351,2.7852 0.50477,1.15514 1.69396,1.69926 2.41987,2.90991 0.72593,1.21067 2.06369,5.08616 2.30563,5.57042 0.24198,0.48426 3.74469,3.50446 5.31751,4.95724 1.57285,1.45279 6.05125,7.51125 5.93028,8.11659 -0.12098,0.60533 -0.68972,1.75711 -0.9659,2.6605 -0.29183,0.95464 0,2.18351 -0.727,2.90991 -0.7259,0.72639 -2.47739,0.7173 -3.38575,1.56927 -0.36867,0.34581 -0.31663,1.03519 -0.727,1.33025 -1.69609,1.21951 -3.26545,0.97015 -6.16914,1.0912 -2.90366,0.12108 -4.23745,-2.85471 -6.65725,-3.51267 -0.85708,-0.23304 -2.05382,0.11742 -2.65875,-0.1247 -0.60493,-0.24214 -2.10739,-1.16491 -3.27153,-1.33026 -0.76283,-0.10839 0.60846,0.85476 -2.29523,0.24943 -2.90369,-0.60533 -3.62807,-1.22717 -4.96439,-0.24943 -2.10703,1.54165 -0.48815,3.76507 -2.00447,7.57617 -1.36959,3.44243 -3.71231,6.8587 -4.89167,8.77131 -1.73164,2.80828 -2.92542,5.51918 -4.8813,8.01266 -2.00713,2.55881 -4.77539,4.90532 -6.49111,7.9711 -3.38762,6.05329 -10.01296,8.67228 -13.55339,14.16504 -2.52072,3.91076 -3.74102,10.76993 -5.19287,12.94912 -1.45185,2.17919 -7.0213,5.32316 -7.38429,6.77595 -0.36294,1.45278 -2.0596,4.72511 -4.23739,7.02536 -2.17774,2.30026 -4.62968,1.55935 -6.0445,3.38798 -1.94019,2.50769 -3.09183,6.10848 -2.41987,9.2078 0.4273,1.97085 2.75242,2.96128 4.42433,4.78057 2.56049,2.78617 4.74286,6.12519 5.2552,7.07733 0.84691,1.57385 1.89505,4.59163 2.05638,7.02537 0.17554,2.64813 0.11571,6.17223 -1.21515,7.86715 -1.33085,1.69492 3.14743,28.09375 3.51038,29.90975 0.36298,1.816 0.60131,3.0232 -0.12464,4.7182 -0.45772,1.0688 -2.50447,5.198 -4.72549,8.2621 -1.3011,1.795 -3.29247,2.2669 -3.37539,4.0843 -0.0624,1.3706 1.93176,3.1531 1.93176,3.6373 0,0.4844 -2.77717,4.7168 -3.26113,6.0486 -0.48393,1.3317 -3.2684,-0.1223 -3.51038,-0.7275 -0.24195,-0.6054 -2.05908,-1.3356 -3.87389,-2.5463 -1.81479,-1.2105 -0.23632,0.4855 -0.84125,0.7275 -0.60494,0.2422 0.13387,2.1836 0.11426,3.2737 -0.0299,1.6587 0.84308,3.83 -0.36352,4.9677 -2.14276,2.0206 -6.6493,2.0961 -8.82789,0.1143 -1.46702,-1.3346 -0.60908,-5.0867 -0.48811,-5.9342 0.12097,-0.8474 0.36917,-7.8646 -0.47774,-8.4698 -0.84691,-0.6054 -0.005,-2.3058 0.84122,-3.6375 0.84692,-1.3317 0.003,-9.0729 -0.23885,-11.4941 -0.24197,-2.4213 -0.73066,-11.9843 -0.85163,-13.0739 -0.12098,-1.0896 -1.08849,-15.5494 -2.05638,-17.0022 -0.96789,-1.45279 -1.93175,-19.92307 -1.93175,-20.28626 0,-0.3632 -20.56232,-16.95026 -21.89316,-16.95026 -1.33084,0 -13.31606,0.3632 -21.3012,0 -7.98509,-0.3632 -15.41016,-4.71014 -15.96287,-4.11545 -3.7202,4.00274 -13.67294,12.95332 -14.88279,13.43757 -1.20987,0.48428 -5.11607,11.92606 -5.93025,18.28051 -0.43667,3.40822 0.72334,9.19903 0.60238,10.28862 -0.12098,1.0896 -0.5414,6.87719 0.46733,10.02877 0.78689,2.4585 2.30397,9.7317 3.9204,16.8818 0.98068,4.3378 1.70804,6.225 3.05029,9.2263 0.20967,0.4688 1.51559,3.0889 2.24149,3.573 0.7259,0.4843 0.5221,6.5405 0.0678,7.0294 -1.84528,1.9854 -8.29274,-0.3694 -7.9298,-1.4589 0.36299,-1.0897 -0.36402,-4.3566 -0.72699,-5.8094 -0.36297,-1.4528 -1.19544,-5.9476 -4.11276,-11.38 -1.10608,-2.0595 -6.77879,-18.5278 -7.02077,-19.49632 -0.24195,-0.96853 -4.83826,-19.13053 -6.16914,-17.67774 -1.33084,1.45279 -5.80252,22.64286 -6.0445,23.24816 -0.24195,0.6053 -0.2487,3.1475 0.11426,4.4792 0.36294,1.3317 -6.16862,14.2878 -5.80565,15.2562 0.36297,0.9686 -1.76572,7.3928 -2.61262,7.0296 -0.84693,-0.3632 -5.92135,-1.1573 -7.04945,-3.6196 -0.39563,-0.8634 2.04204,-3.7795 1.80006,-5.3534 -0.24197,-1.5739 1.81494,-2.1725 2.41988,-2.5357 0.60493,-0.3633 3.98759,-15.1319 3.62463,-19.9745 -0.36294,-4.84266 1.69961,-12.10845 1.57864,-12.83484 -0.12098,-0.72639 2.3836,-22.11295 3.59346,-25.13958 1.20987,-3.02665 5.84624,-3.91342 7.54007,-5.48727 1.69382,-1.57384 -2.42598,-9.08694 -8.8383,-20.95139 -6.41227,-11.86444 -10.76272,-35.7157 -10.52074,-38.01595 0.24197,-2.30024 12.45521,-11.74101 14.27002,-12.34635 1.8148,-0.60532 2.78554,-2.66739 4.23739,-4.96763 1.45183,-2.30025 8.83679,-4.71257 10.16762,-5.56002 1.33087,-0.84746 8.10362,-1.21647 9.91841,-1.57967 1.8148,-0.3632 6.53199,-1.08354 13.06528,-2.89953 6.53329,-1.81598 27.34217,-0.48844 29.64093,-0.48844 2.29875,0 8.23133,-0.36792 9.80414,-0.85219 1.57282,-0.48427 12.33479,-2.17515 14.63352,-1.93301 2.29874,0.24212 26.61439,1.57748 33.02668,0.12471 3.68384,-0.83463 8.49979,-5.63152 13.59496,-10.36139 3.7738,-3.50323 7.07623,-6.12673 9.14984,-10.70431 0.35749,-0.78917 -0.96277,-0.7333 -1.20476,-2.30716 -0.12615,-0.82056 -1.98535,-0.66725 -3.84272,-1.29906 -1.70513,-0.58003 -3.39111,-1.97302 -4.1439,-2.08891 -1.57281,-0.24213 -4.53348,-6.81038 -5.74333,-8.98956 -1.20987,-2.17918 0.5433,-12.31787 2.72106,-14.13386 2.17778,-1.816 7.13988,4.01246 7.62314,2.90991 0.40377,-0.92106 -2.26668,-3.22781 -4.98516,-5.16511 -2.81848,-2.00856 -4.58303,-4.98055 -6.02373,-7.43066 -3.41171,-5.80208 -5.44629,-15.1286 -5.93025,-17.79206 -0.48396,-2.66344 -1.21259,-8.11254 -1.81752,-10.0496 -0.60493,-1.93704 -0.96586,-4.2345 -0.96586,-5.08195 0,-0.84745 0.96696,-8.59991 1.69286,-9.81057 0.72594,-1.21066 0.85219,3.74915 1.21515,4.35449 0.36295,0.60531 0.72026,4.3592 0.84123,5.20666 0.12101,0.84746 1.81387,7.02443 1.69289,8.71936 -0.12097,1.69492 1.57298,9.20227 2.41987,12.47105 0.84691,3.26878 1.05472,4.59837 2.908,5.57041 0.576,0.30208 1.20585,0.003 1.93176,-0.23902 0.72594,-0.24214 2.42354,-1.34026 2.54452,-3.39837 0.0621,-1.05759 -1.08039,-4.89206 -1.46733,-10.41528 -0.36608,-5.22526 0.0203,-12.07637 0.13795,-15.60768 0.24198,-7.26394 6.76639,-15.1352 7.97626,-15.25626 1.20986,-0.12105 0,2.06192 0,2.54618 0,0.48425 -3.26113,7.25616 -3.26113,8.70895 0,1.4528 -1.57445,9.32375 -1.09052,10.41335 0.48397,1.08959 0.60238,6.06009 0.60238,9.2078 0,3.1477 0.60968,6.77028 0.85163,7.61773 0.24198,0.84746 1.81294,1.81925 3.38575,2.18245 1.57285,0.36319 8.5877,-3.14801 12.33827,-4.84294 3.7506,-1.69492 13.79338,-10.2897 14.51928,-11.0161 0.72594,-0.72639 1.69655,0.005 1.81752,1.21593 0.12098,1.21065 -3.02443,4.59877 -4.47627,5.80943 -1.45181,1.21065 -9.1922,7.87095 -14.39465,10.41334 -5.20241,2.54238 -12.82911,5.93213 -14.64391,6.90066 -1.8148,0.96852 -0.47319,2.7533 0.13173,3.47969 0.60494,0.7264 10.51584,10.80075 11.96769,11.52715 1.45184,0.72639 2.53628,1.09122 3.98813,1.09122 1.45184,0 1.09105,-0.12052 1.454,0.36374 0.36295,0.48425 -0.11938,2.18297 1.09049,2.54617 1.20986,0.3632 3.50839,5.56731 4.47627,5.80945 0.96789,0.24211 4.36056,-0.84802 5.69139,-0.36375 1.33084,0.48426 5.79997,0.36375 6.64688,0.36375 0.84692,0 3.74472,-0.34925 1.57864,-2.8164 -0.67758,-0.77174 -0.003,-1.05599 0.23885,-2.99305 0.24198,-1.93704 -0.23629,-2.66576 -0.84123,-3.87642 -0.60493,-1.21066 -2.78338,-8.4752 -2.78338,-9.68586 0,-1.21065 0.85326,-1.65479 1.08012,-1.21593 0.32503,0.62879 1.02761,2.7418 1.87628,4.8359 0.60271,1.48712 0.6181,2.04443 1.49854,1.99436 0.21406,-0.0122 0.54604,-0.14053 1.16613,-1.74466 0.8281,-2.14238 0.4271,-1.93154 0.54807,-3.14219 0.12097,-1.21066 2.90545,-2.42363 3.51038,-3.87642 0.60493,-1.45279 3.38685,-5.69014 4.11276,-9.32212 0.24151,-1.2083 -0.78643,-4.03293 -1.66172,-7.8256 -1.75571,-7.60755 -3.14075,-14.58808 -4.73889,-18.93522 -0.62817,-1.70871 -0.13676,-3.87293 -0.98368,-6.17318 -0.84687,-2.30024 -0.96532,-3.38542 -0.60237,-3.99073 0.36299,-0.60534 2.10277,3.01793 3.15411,5.29209 0.65273,1.41189 0.35372,3.06514 0.95865,4.15473 0.60493,1.08959 0.69636,1.49836 1.20106,2.42534 0.42141,0.77396 3.03323,6.89166 3.27521,8.10232 0.24198,1.21065 3.50636,14.52366 5.44213,15.73431 1.93578,1.21067 6.75802,-3.06321 7.98663,-4.71821 0.28957,-0.39006 0.76971,-3.07242 0.93472,-4.09466 0.24596,-1.52356 0.35667,-3.51388 0.32197,-9.30135 -0.0286,-4.78938 0.31157,-9.75775 0.31157,-12.02417 0,-4.72156 -3.13702,-12.58956 -3.50001,-13.07384 -0.28356,-0.37832 -3.07897,-3.42528 -2.32641,-3.40875 z m -80.34416,229.85207 c -0.0481,0.005 -0.0445,0.0999 0.0312,0.31178 0.60494,1.69492 -1.8144,7.50504 -2.05637,8.59463 -0.24196,1.08959 0.60131,4.11654 -0.12464,4.84294 -0.72591,0.7264 -0.75355,15.07118 -0.84123,19.00798 -0.0876,3.9368 -0.8469,3.2618 0,4.5935 0.84692,1.3316 0.57187,8.3432 1.56823,8.8441 0.9964,0.5008 2.01759,-1.0791 3.21959,-2.3487 1.13894,-1.203 2.48215,-2.075 2.83533,-2.3695 0.35318,-0.2946 -0.72646,-3.2692 -0.36352,-4.843 0.36299,-1.5738 1.57502,-4.3681 1.45401,-6.5473 -0.12097,-2.1792 -0.12936,-7.6184 -0.97626,-10.4029 -0.84688,-2.78455 -1.20837,-14.40831 -1.32938,-14.89257 -0.10596,-0.42374 -3.07948,-4.83069 -3.4169,-4.79096 z"
       id="path2994"
       inkscape:connector-curvature="0"
       sodipodi:nodetypes="cssssssssssssssssssssssssssssssssssssssssssssssssssssssssssssssssssscsssssssssssssssssssssssssssssssssssssssssssssssssssssssssssssssssssssssssssssssssssssssssssssssssssssssssssssssssssssccsssssssssssccc" />
  </g>
</svg>
